/* XPM */
static char * lock_xpm[] = {
"16 15 122 2",
"  	c None",
". 	c #131716",
"+ 	c #10130F",
"@ 	c #0E060C",
"# 	c #100C12",
"$ 	c #797F78",
"% 	c #373E38",
"& 	c #1F2422",
"* 	c #2B212B",
"= 	c #181019",
"- 	c #1C121B",
"; 	c #0B090C",
"> 	c #252825",
", 	c #252A29",
"' 	c #25292A",
") 	c #050706",
"! 	c #131218",
"~ 	c #3E343F",
"{ 	c #20121A",
"] 	c #1C1420",
"^ 	c #000000",
"/ 	c #171F1B",
"( 	c #2A2F31",
"_ 	c #010101",
": 	c #493A49",
"< 	c #120616",
"[ 	c #161414",
"} 	c #383F41",
"| 	c #252C29",
"1 	c #584B5C",
"2 	c #180D1A",
"3 	c #1B151A",
"4 	c #36363A",
"5 	c #424249",
"6 	c #2E2E2E",
"7 	c #201D24",
"8 	c #1E1920",
"9 	c #131D19",
"0 	c #172219",
"a 	c #383F42",
"b 	c #2F3531",
"c 	c #3D4141",
"d 	c #0F1110",
"e 	c #0F0F0F",
"f 	c #0F0E0F",
"g 	c #050F0F",
"h 	c #060F0E",
"i 	c #060F0F",
"j 	c #0A0F0F",
"k 	c #050A05",
"l 	c #232225",
"m 	c #202227",
"n 	c #221F24",
"o 	c #212129",
"p 	c #202328",
"q 	c #181F24",
"r 	c #1C2324",
"s 	c #1B2024",
"t 	c #1D2025",
"u 	c #1C2226",
"v 	c #0C100C",
"w 	c #626668",
"x 	c #596465",
"y 	c #585D64",
"z 	c #55585B",
"A 	c #4D5356",
"B 	c #55495F",
"C 	c #5A5068",
"D 	c #5C5468",
"E 	c #64566C",
"F 	c #695C74",
"G 	c #202324",
"H 	c #5B5F62",
"I 	c #545C61",
"J 	c #505158",
"K 	c #4E515A",
"L 	c #4E5658",
"M 	c #524C60",
"N 	c #564E61",
"O 	c #554761",
"P 	c #5E5164",
"Q 	c #60576D",
"R 	c #1F2021",
"S 	c #585E65",
"T 	c #4E545A",
"U 	c #4B5054",
"V 	c #4E5052",
"W 	c #454D50",
"X 	c #4B4259",
"Y 	c #55475D",
"Z 	c #524760",
"` 	c #594C65",
" .	c #605569",
"..	c #1D1E22",
"+.	c #4A4F53",
"@.	c #444A4E",
"#.	c #444A4D",
"$.	c #464A4E",
"%.	c #414449",
"&.	c #473B4F",
"*.	c #4A3F53",
"=.	c #4C4055",
"-.	c #514458",
";.	c #4A3E58",
">.	c #1B1C1D",
",.	c #0F0F0A",
"'.	c #0F0F08",
").	c #0F0F07",
"!.	c #0F070F",
"~.	c #0F080F",
"{.	c #0F090F",
"].	c #0A0508",
"^.	c #0A0A07",
"/.	c #0B0B03",
"(.	c #0B0B06",
"_.	c #0B0B05",
":.	c #0B0B04",
"<.	c #0B060B",
"[.	c #0B030B",
"}.	c #0B070B",
"|.	c #0F090D",
"1.	c #040203",
"            . + @ #             ",
"          $ % & * = - ;         ",
"        > , ' ) ! ~ { ] ^       ",
"        / ( _ ^     : < [       ",
"        } | ^       1 2 3       ",
"      4 5 6 7 8 9 0 a b c d     ",
"      e e e e f g h g i j k     ",
"      l m n o p q r s t u v     ",
"      w x y z A B C D E F G     ",
"      H I J K L M N O P Q R     ",
"      S T U V W X Y Z `  ...    ",
"      +.@.#.$.%.&.*.=.-.;.>.    ",
"      ,.'.).'.).!.~.!.~.{.].    ",
"      ^./.(._.:.<.[.<.}.|.1.    ",
"        ^ ^ ^ ^ ^ ^ ^ ^ ^ ^     "};
