/* XPM */
static char * logo_xpm[] = {
"150 110 50 1",
" 	c None",
".	c #FFFFFF",
"+	c #505000",
"@	c #960062",
"#	c #FFFF8E",
"$	c #FFFF00",
"%	c #FFF0D4",
"&	c #FFD4E3",
"*	c #FFB1C7",
"=	c #000000",
"-	c #0E0E0E",
";	c #DCDC00",
">	c #B9B900",
",	c #808080",
"'	c #FF6B8F",
")	c #C0C0C0",
"!	c #4A4A4A",
"~	c #DC0092",
"{	c #FF8EAB",
"]	c #003DB9",
"^	c #D4F0FF",
"/	c #B1E2FF",
"(	c #6BC6FF",
"_	c #48B8FF",
":	c #000080",
"<	c #0000FF",
"[	c #8ED4FF",
"}	c #005050",
"|	c #0092DC",
"1	c #B1FFFF",
"2	c #25FFFF",
"3	c #00DCDC",
"4	c #00B9B9",
"5	c #009696",
"6	c #9F9F9F",
"7	c #2F2F2F",
"8	c #1F1F1F",
"9	c #5F5F5F",
"0	c #DFDFDF",
"a	c #6F6F6F",
"b	c #3F3F3F",
"c	c #CFCFCF",
"d	c #0F0F0F",
"e	c #7F7F7F",
"f	c #BFBFBF",
"g	c #4F4F4F",
"h	c #EFEFEF",
"i	c #AFAFAF",
"j	c #8F8F8F",
"k	c #007373",
"......................................................................................................................................................",
"......................................................................................................................................................",
"......................................................................................................................................................",
"......................................................................................................................................................",
"......................................................................................................................................................",
"......................................................................................................................................................",
"......................................................................................................................................................",
"......................................................................................................................................................",
"......................................................................................................................................................",
"......................................................................................................................................................",
"......................................................................................................................................................",
"................++++++.................................................................................................@@@@@@@@@@@....................",
"................+###$++................................................................................................@.%%%&&&**@@...................",
"...........++++++##$$+.+...............................................................................................@%%%&&&===@&@..................",
"...........+###$++$$$++++..............................................................................................@%&&&&==--@&&@.................",
"...........+##$$+.+$$$;>+=.............................................................................................@&,,&,,=--@@@@@................",
"...........+#$$++++++;;>+=.............................................................................................@,..,..,===--'@................",
"...........+$$$+###$++;>+=.............................................................................................,..)),,=!!!!='@................",
"...........+$;$+##$$+.+>+=.............................................................................................,,),,)==!,!,='@=...............",
"...........+;;;+#$$$+++++=.............................................................................................@*,..=@=)!)!='@=...............",
"...........+>>>+$$$$$;>+==.............................................................................................@*@~~=@=!,!,='@=...............",
"...........+++++$;$;;;>+=..............................................................................................@*@~~@)=)!)!='@=...............",
"............===+;;;;;;>+=..............................................................................................@*,..,)=!,!,='@=...............",
"...............+>>>>>>>+=..............................................................................................@{,..,)=)!)!='@=...............",
"...............+++++++++=..............................................................................................@{,..,=!!!!=''@=...............",
"................=========..............................................................................................@@====@====@@@@=...............",
".........................................................................................................................==============...............",
"......................................................................................................................................................",
"......................................................................................................................................................",
"......................................................................................................................................................",
"....................................................]]]]]]]]]]].......................................................................................",
"....................................................].^^^/////]]......................................................................................",
"....................................................]^^^///===](].....................................................................................",
"....................................................]^////==--]((]....................................................................................",
"....................................................]/,,/,,=--]]]]]...................................................................................",
"....................................................],..,..,===--_]...................................................................................",
"....................................................,..)),,=!!!!=_]...................................................................................",
"....................................................,,),,)==!,!,=_]=..................................................................................",
"....................................................]/,..=:=)!)!=_]=..................................................................................",
"....................................................]/:<<=:=!,!,=_]=..................................................................................",
"....................................................][:<<:)=)!)!=_]=............................}}}}}}}}}}}...........................................",
"....................................................][,..,)=!,!,=|]=............................}.11122223}}..........................................",
"....................................................]_,..,)=)!)!=|]=............................}1========}.}.........................................",
"....................................................]|,..,=!!!!=||]=............................}1=11=22=3}..}........................................",
"....................................................]]====]====]]]]=............................}1=12=22=3}}}}}.......................................",
"......................................................==============............................}2==========44}.......................................",
"................................................................................................}2=22=32=34=44}.......................................",
"................................................................................................}2=22=23=33=44}=......................................",
"................................................................................................}3==========44}=......................................",
"................................................................................................}3=33=33=34=45}=......................................",
"................................................................................................}3=33=43=44=44}=......................................",
"................................................................................................}3=34=44=44=45}=......................................",
"................................................................................................}4==========54}=......................................",
"................................................................................................}4444444454545}=......................................",
"................................................................................................}}}}}}}}}}}}}}}=......................................",
"..................................................................................................==============......................................",
"......................................................................................................................................................",
"......................................................................................................................................................",
"......................................................................................................................................................",
"......................................................................................................................................................",
"......................................................................................................................................................",
"......................................................................................................................................................",
"......................................................................................................................................................",
"......................................................................................................................................................",
"......................................................................................................................................................",
"......................................................................................................................................................",
"......................................................................................................................................................",
".......67==890........................................abbbbbba.6b6.cba..............abba...6bbb.......................................................",
"......b==bb==d0.......................................b======b.e=e.f=b..............b==d...g===.......................................................",
".....e=70..h7=9.......................................b=f..........f=b..............b=8=f..=8==.......................................................",
".....d=0....cih..bb6=a.h9d=7i...bb...bb..bbc8=bc......b=f......6b6.f=b..cb=d9h......b=9=e.f=9==..68==7c..abfg=86..hg==da...i8=b6ba..cb=d9h..ab6d7.....",
"....c=7..........==d=6h7=ged=6..==...==..==8ag=7......b=jffff..e=e.f=b.0d=a9=b......b=6=7.a=6==.f=8eg=8..b=da9==h.b=9ed=6.0==a9==b.0d=a9=b..b=d=9.....",
"....f=b...bbbba..==jhhj=9..0=d..==...==..==i..7=i.....b======..e=e.f=b.e=e..b=c.....b=f8=h7=0==.0jc.h==..b=e..7=f.ij..a=e.a=e..a=b.e=e..b=c.b=g.0.....",
"....f=7...====b..==h..b=f...b=f.==...==..==...e=e.....b=9eeee..e=e.f=b.b=9eeb=e.....b=f9=6=8.==..f97===..b=f..b=f.hjbd==e.b=f..f=b.b=9eeb=e.b=i.......",
".....d=h....f=b..==...b=f...b=f.==...==..==...e=e.....b=f......e=e.f=b.b=7bbbb6.....b=f6=8=9.==.i=d96==..b=f..b=f.7=7e9=e.b=f..f=b.b=7bbbb6.b=f.......",
".....9=g....j=b..==...a=e..hd=h.==..0==..==f..g=6.....b=f......e=e.f=b.9=6..ch......b=f0===6.==.b=i.h==..b=f..b=ff=7..a=e.a=a..a=b.9=6..ch..b=f.......",
".....h8=8ee7==g..==...0=djfb=a..8=af7==..==7ij=dh.....b=f......e=e.f=b.f=di6=dh.....b=f.7==h.==.g=9fg==..b=f..b=fc=di6d=e.0==a9d=b.f=di6=dh.b=f.......",
"......h9====8eh..==....i8===a...6===6==..==a==dc......b=f......e=e.f=b..6d==di......b=f.a=7..==.cd==bb=i.b=f..b=f.9==da=7..i8=bi=b..6d==di..b=f.......",
"........hff0.............cfh.....hfh.....==.0f...........................hff......................fc...............0fh....00...f=b...hff..............",
".........................................==...............................................................................j=7fi7=j....................",
".........................................==...............................................................................hb====bh....................",
"............................................................................................................................0ff0......................",
"......................................................................................................................................................",
"......................................................................................................................................................",
"......................................................................................................................................................",
"......................................................................................................................................................",
"...............}}}}}}}}}}}............................................................................................................................",
"...............}.11122223}}...........................................................................................................................",
"...............}111122233}.}...........................................}}}}}}}}}}}....................................................................",
"...............}111122223}..}..........................................}.11122523}}...................................................................",
"...............}111222233}}}}}.........................................}111122533}.}..................................................................",
"...............}22=222=233344}.........................................}111122523}..}.................................................................",
"...............}222=2=2334344}.........................................}111222533}}}}}.......................................}}}}}}}}}}}..............",
"...............}222=3=3333444}=........................................}222222=233344}.......................................}.31122223}}.............",
"...............}3232=33===444}=........................................}22222k=k34344}.......................................}3=3122233}.}............",
"...............}3333=33434445}=........................................}22223=5=33444}=......................................}===122223}..}...........",
"...............}3333=43===444}=........................................}3232=k5k=3444}=......................................}1=1222234}}}}}..........",
"...............}3434=44444445}=........................................}555k=555=k555}=......................................}2=2223===4344}..........",
"...............}4444=44444454}=........................................}33k=34544=k44}=......................................}2=22234==4344}..........",
"...............}4444444454545}=........................................}3k=k34544k=k5}=......................................}2=2=34=4=3444}=.........",
"...............}}}}}}}}}}}}}}}=........................................}4=====5=====4}=......................................}3=324=4343444}=.........",
".................==============........................................}4444445454545}=......................................}3=34=43434445}=.........",
".......................................................................}}}}}}}}}}}}}}}=......................................}3=4=43=444444}=.........",
".........................................................................==============......................................}3==4344444=54}=.........",
".............................................................................................................................}4===========5}=.........",
".............................................................................................................................}4444444454=54}=.........",
".............................................................................................................................}}}}}}}}}}}}}}}=.........",
"...............................................................................................................................==============.........",
"......................................................................................................................................................",
"......................................................................................................................................................"};
