/* XPM */
static char * attr_locked_xpm[] = {
"16 16 126 2",
"  	c None",
". 	c #AFAFC2",
"+ 	c #BDBDCC",
"@ 	c #B0B0C2",
"# 	c #9191AB",
"$ 	c #CDCDD9",
"% 	c #F2F2F4",
"& 	c #F6F6F6",
"* 	c #F4F4F4",
"= 	c #EFEFF1",
"- 	c #CCCCD7",
"; 	c #C7C7D3",
"> 	c #F1F1F3",
", 	c #CECED6",
"' 	c #A9A9BA",
") 	c #A6A6B7",
"! 	c #C0C0C9",
"~ 	c #EAEAEC",
"{ 	c #C3C3CF",
"] 	c #9B9BB0",
"^ 	c #E6E6EA",
"/ 	c #C8C8D1",
"( 	c #7E7E99",
"_ 	c #757593",
": 	c #AFAFB9",
"< 	c #DFDFE3",
"[ 	c #9898AD",
"} 	c #A2A2B6",
"| 	c #EDEDED",
"1 	c #9D9DAF",
"2 	c #88889D",
"3 	c #D9D9DA",
"4 	c #9E9EB1",
"5 	c #9D9DB0",
"6 	c #E4E4E4",
"7 	c #86869D",
"8 	c #7B7B92",
"9 	c #D2D2D2",
"0 	c #9898AB",
"a 	c #9D9497",
"b 	c #DBD3C7",
"c 	c #8B8287",
"d 	c #847B81",
"e 	c #CFC6BA",
"f 	c #9A9094",
"g 	c #D59534",
"h 	c #D2A657",
"i 	c #DEB363",
"j 	c #CFA253",
"k 	c #E0AA46",
"l 	c #CDA152",
"m 	c #DBB161",
"n 	c #D1A556",
"o 	c #BA7B2A",
"p 	c #F1DE70",
"q 	c #FFF75C",
"r 	c #FFF750",
"s 	c #FFF74F",
"t 	c #FFF64E",
"u 	c #F1D04D",
"v 	c #A16728",
"w 	c #EED44A",
"x 	c #FFE936",
"y 	c #FFE836",
"z 	c #FFD72D",
"A 	c #EEA61C",
"B 	c #875327",
"C 	c #E9C440",
"D 	c #FFDA2F",
"E 	c #FFD92E",
"F 	c #FFCB26",
"G 	c #FFAF17",
"H 	c #E99516",
"I 	c #754526",
"J 	c #E6B639",
"K 	c #FFC926",
"L 	c #FFC825",
"M 	c #FFC725",
"N 	c #FFC423",
"O 	c #FFB91D",
"P 	c #FFA613",
"Q 	c #FFA110",
"R 	c #E68D12",
"S 	c #744426",
"T 	c #E6AC34",
"U 	c #FFBD1F",
"V 	c #FFBF20",
"W 	c #FFB61B",
"X 	c #FFB219",
"Y 	c #FFAC16",
"Z 	c #FFA411",
"` 	c #FF9F0F",
" .	c #FF9A0C",
"..	c #E6870F",
"+.	c #E6A732",
"@.	c #FFBC1E",
"#.	c #FFB41A",
"$.	c #FFAF18",
"%.	c #FFAB15",
"&.	c #FFA512",
"*.	c #FF9C0E",
"=.	c #FF970B",
"-.	c #FF9308",
";.	c #E6810C",
">.	c #DDA63B",
",.	c #FFB71C",
"'.	c #FFAD16",
").	c #FFA814",
"!.	c #FFA412",
"~.	c #FF9A0D",
"{.	c #FF950A",
"].	c #FF9007",
"^.	c #FF8C05",
"/.	c #DD780B",
"(.	c #8F5E2E",
"_.	c #9A6323",
":.	c #9A6122",
"<.	c #9A6021",
"[.	c #9A5F21",
"}.	c #9A5D20",
"|.	c #9A5C1F",
"1.	c #9A5B1F",
"2.	c #9A591E",
"3.	c #9A581D",
"4.	c #9A571D",
"5.	c #8F511F",
"            . + + @             ",
"        # $ % & * = - #         ",
"        ; > , ' ) ! ~ {         ",
"      ] ^ / (     _ : < [       ",
"      } | 1         2 3 4       ",
"      5 6 7         8 9 0       ",
"      a b c         d e f       ",
"    g h i j k k k k l m n g     ",
"  o p q r s s s s s s s t u o   ",
"  v w x x x x x x x x y z A v   ",
"  B C D D D D D D D E F G H B   ",
"  I J K K K L L M N O P Q R I   ",
"  S T U V U O W X Y Z `  ...S   ",
"  S +.@.O #.$.%.&.Q *.=.-.;.S   ",
"  S >.,.X '.).!.` ~.{.].^./.S   ",
"    (._.:.<.[.}.|.1.2.3.4.5.    "};
