/* XPM */
static char *up_xpm[] = {
"16 14 3 1",
" 	c	None",
"#	c	purple",
"*	c       #000000",
"                ",
"      #         ",
"     ###        ",
"    #####       ",
"   #######      ",
"     ###        ",
"     ###        ",
"     ###        ",
"     ###        ",
"     ###        ",
"     ###        ",
"     ###        ",
"     ###        ",
"                "
};
