/* XPM */
static char *dotdot_xpm[] = {
"16 14 4 1",
" 	c	None",
"#	c	purple",
"*	c       #000000",
"-	c	blue",
"                ",
"                ",
"   #            ",
"  ###           ",
" #####          ",
"#######         ",
"  ###           ",
"  ###           ",
"  ###           ",
"  ###### ### ## ",
"  ######*###*##*",
"   ****** *** **",
"                ",
"                "
};
