/* XPM */
static char * screen_mini_xpm[] = {
"16 16 3 1",
" 	c None",
".	c #000000",
"+	c #2F2F2F",
"       .      . ",
"       .     .  ",
"       .        ",
"       .  .     ",
"       . .      ",
"       .        ",
"   .  ..        ",
"................",
"  ...  . .  .   ",
"     . . .  .   ",
"..   . . .  .   ",
" .   . .     .  ",
" .   . ..    .  ",
"      ...    .  ",
".     ...       ",
".      .      .+"};
