/* XPM */
static char * calc7[] = {
"32 32 11 1",
" 	c None",
".	c None",
"+	c #000000",
"@	c #7F7F7F",
"#	c #949194",
"$	c #808000",
"%	c #000080",
"&	c #00007F",
"*	c #0000FF",
"=	c #7F0000",
"-	c #7F7F00",
"................................",
"................................",
"..................+.............",
"....+++@+.+......++.............",
"...++.......@...+++++++++++.....",
"...+@.........@+++#########.....",
"...++...........+++++++++++.....",
"...@++...........++########.....",
"....++............+#............",
"....++.............#............",
"...++@..........................",
"..++++++++++++++++++++++++++++..",
".+++++$+@@@@@+++++@@+++++++++++.",
"++++++++++++++++++++++++++++++++",
"++++%@.@.@.......@.@.+&%++&&%+++",
"++%*+@@@@@@@@@@@@@@@@+&=+&*%*&++",
"+*++%.....@..........+==+&%*&%++",
"++%*+.@.@.@.@.@.@.@.@+$-+&*%*&++",
"+*++%.....@..........+&$++&&&+++",
"++%*+.@.@.@..@.@.@.@.+%&++++++++",
"+*+++.....@..........++++&&%&%++",
"+++++.@.@.@.@.@.@.@.@+++++++++++",
"++++++++++++++++++++++++++++++++",
"+@+@+@+@+@+@+@+@+@+@+++.+.+.+@++",
"++++++++++++++++++++++++++++++++",
"++@+@+@+@+@+@+@+@+@++++.+.+.+@++",
"++++++++++++++++++++++++++++++++",
"+++@+@+@+@+@+@+@+@+&&++.+.+.+@++",
"+++++++++++++++++++&&+++++++++++",
"+@+@+@+@+@@@@@+@+@+%&++.+.+.+*++",
".++++++++++++++++++++++++++++++.",
"..++++++++++++++++++++++++++++.."};
