/* XPM */
static char * help_xpm[] = {
"32 32 107 2",
"  	c None",
". 	c #000000",
"+ 	c #4B3E22",
"@ 	c #9A804D",
"# 	c #D4B169",
"$ 	c #C19E57",
"% 	c #AD8D4D",
"& 	c #5D4C2A",
"* 	c #241C0D",
"= 	c #6D5628",
"- 	c #F0D49A",
"; 	c #F7DAA1",
"> 	c #F7D38C",
", 	c #F0C368",
"' 	c #ECC26D",
") 	c #D9B772",
"! 	c #A98844",
"~ 	c #55421E",
"{ 	c #7C673B",
"] 	c #F7D89B",
"^ 	c #ECC577",
"/ 	c #927335",
"( 	c #624D23",
"_ 	c #6C5527",
": 	c #E0B151",
"< 	c #F7C86A",
"[ 	c #DEB868",
"} 	c #C19C4F",
"| 	c #1C160A",
"1 	c #010101",
"2 	c #020202",
"3 	c #EAC882",
"4 	c #F7D99C",
"5 	c #896C32",
"6 	c #100D06",
"7 	c #675229",
"8 	c #EBBB59",
"9 	c #ECC26C",
"0 	c #D8AF5B",
"a 	c #664F24",
"b 	c #776436",
"c 	c #F7D38B",
"d 	c #D7B060",
"e 	c #362E1E",
"f 	c #DBB15E",
"g 	c #ECC16A",
"h 	c #D8AD55",
"i 	c #665025",
"j 	c #9C7B39",
"k 	c #F7CB72",
"l 	c #C19746",
"m 	c #DEBA6D",
"n 	c #D8AE58",
"o 	c #49391A",
"p 	c #61502C",
"q 	c #8A6F39",
"r 	c #644E24",
"s 	c #61502D",
"t 	c #E0BB70",
"u 	c #D8B365",
"v 	c #AA863D",
"w 	c #010102",
"x 	c #BF9C54",
"y 	c #DEC184",
"z 	c #D2A74F",
"A 	c #5B4720",
"B 	c #030303",
"C 	c #866A30",
"D 	c #ECC679",
"E 	c #D8B060",
"F 	c #82672F",
"G 	c #020203",
"H 	c #5A4924",
"I 	c #C4A568",
"J 	c #DCBB77",
"K 	c #C9A868",
"L 	c #2D2412",
"M 	c #A48547",
"N 	c #D6B36D",
"O 	c #CAA660",
"P 	c #796541",
"Q 	c #BE9B53",
"R 	c #D8B46B",
"S 	c #C5A05B",
"T 	c #352D1E",
"U 	c #000001",
"V 	c #D2AD60",
"W 	c #D8B367",
"X 	c #A3823E",
"Y 	c #19150D",
"Z 	c #B09150",
"` 	c #B69249",
" .	c #634D23",
"..	c #181818",
"+.	c #0C0C0C",
"@.	c #5B4D2F",
"#.	c #52462D",
"$.	c #2A210F",
"%.	c #F1CC81",
"&.	c #F7D693",
"*.	c #8A6D31",
"=.	c #F3D088",
"-.	c #DEB866",
";.	c #7E632D",
">.	c #DCB462",
",.	c #CCA350",
"'.	c #5C4720",
"                                                                ",
"                                                                ",
"                                                                ",
"                                                                ",
"                                                                ",
"                          . . . . .                             ",
"                      . + @ # $ % & * .                         ",
"                    . = - ; > , ' ) ! ~ .                       ",
"                    { ] ^ / ( _ : < [ } | 1                     ",
"                  2 3 4 5 6     7 8 9 0 a .                     ",
"                  b c d .       e f g h i .                     ",
"                  j k l .       e f m n o .                     ",
"                  p q r .       s t u v . .                     ",
"                  . . . w     . x y z A .                       ",
"                            B C D E F . G                       ",
"                            H I J K L .                         ",
"                          . M N O P .                           ",
"                          . Q R S T U                           ",
"                          . V W X Y                             ",
"                          . Z `  ..                             ",
"                            ..+..                               ",
"                                                                ",
"                            @.#.$.B                             ",
"                          . %.&.*..                             ",
"                          . =.-.;..                             ",
"                          . >.,.'..                             ",
"                            . . . .                             ",
"                                                                ",
"                                                                ",
"                                                                ",
"                                                                ",
"                                                                "};
