/* XPM */
static char * refresh_xpm[] = {
"32 32 9 1",
" 	c None",
".	c #000000",
"+	c #BFBFBF",
"@	c #7F0000",
"#	c #FF0000",
"$	c #100850",
"%	c #00007F",
"&	c #0000FF",
"*	c #101820",
"                                ",
"                                ",
"                                ",
"    @#@###@####  $%$            ",
"     #@########  %$$$$$         ",
"      @#@##@###  $%%$$$$        ",
"       #@######  %$%$%$$$$      ",
"      #@#@##@##  %%$%$%$$$      ",
"     @#@##@###@    %$%%$$$$     ",
"     #@@#@##@##      $%$%$$$    ",
"    #@##@#@##@#       $%$$$$    ",
"    @#@@@#  @#@        $%%$$    ",
"   @@@##@    ##        %$%%$%   ",
"   @@#@@      @         %$%$$   ",
"   @#@@#                %$%%$   ",
"   @@#@@                %%%%$   ",
"   @@@#@                %%%%%   ",
"   @@@@@                %%%%$   ",
"   @@@@@         %      %%%%$   ",
"    @@@@@        %%    %%%%%    ",
"    @@@@@        %%%   %%%%%    ",
"    @@@@@@       %%%% %%%%%%    ",
"     @@@@@@      %&%%%%%%%%%    ",
"     @@@@@@@@    &%&%%%%%%%     ",
"      @@@@@@@@@  &&%&%%%%%      ",
"       @@@@@@@@  &%&%&%%%       ",
"        @@@@@@@  %&%&%&%%%      ",
"         @@@@@@  &&&&&%&%%%     ",
"            @@@  %%%%&%&%%%%    ",
"                                ",
"                                ",
"                                "};
