/* XPM */
static char * trash_xpm[] = {
"32 32 12 1",
" 	c None",
".	c #007F7F",
"+	c #000000",
"@	c #707770",
"#	c #DFD8DF",
"$	c #404040",
"%	c #1F201F",
"&	c #505050",
"*	c #909790",
"=	c #BFBFBF",
"-	c #FFF8EF",
";	c #9F9FA0",
"                                ",
"                                ",
"                                ",
"                                ",
"                                ",
"           ++++++++++++         ",
"       +++++@@@@@@@@@@@++       ",
"     ++@@@@@@   + ##+  @@+$     ",
"    +@@++  + + + +#+#+#+++$$    ",
"   $++  + +   +   +#  +#+##+$   ",
"   $++   + + + + + + +%@##&+$   ",
"   $$ ++ +  +   + @@+@#+$&&+$   ",
"   ++$$*+  + ++ &+%###%#*$$++   ",
"    ++++***++  +  %%%***+++$    ",
"    $ $ ++**==----==**++ $ $    ",
"    $$+* +++++++++++++* $+$$    ",
"     $ +*+  +=+  +=+  +*++$     ",
"     $$$+* **+-  -+** * $$$     ",
"     $++ +*++ %--+ ++*+ ++$     ",
"     $$ **+*  ;%&   *+*$ $$     ",
"      $$++ += -++- *+ ++$$      ",
"      $+$   ==+  +==   $$$      ",
"      $ +* *++-  -++* *++$      ",
"      $ $**+  +--+  +**$ $;     ",
"      ;$+++* =-++-= *++$$;;;;   ",
"     ;;$   *=++  ++=*  +$;;;;;  ",
"     ;;$ $*++=-  -=++** $;;;;;  ",
"     ;;$$++  ++--++  ++$$;;;;   ",
"      ;$$$   =-++-=   $$+;;;    ",
"       +++***++  ++***++;;;     ",
"          +++*=--=*+++;;        ",
"             ++++++             "};
