/* XPM */
static char * icon_xpm[] = {
"48 48 927 2",
"  	c None",
". 	c #FFFFFF",
"+ 	c #FAFBFC",
"@ 	c #E4EAF8",
"# 	c #FEFEFE",
"$ 	c #EBF0F8",
"% 	c #F0F4FB",
"& 	c #F7F7F7",
"* 	c #CFD2D9",
"= 	c #8CA8E0",
"- 	c #A0B5DF",
"; 	c #B1C3E6",
"> 	c #BCCBEA",
", 	c #B3C5EA",
"' 	c #B3C6EC",
") 	c #B1C4EB",
"! 	c #AFC2E8",
"~ 	c #AFC1E6",
"{ 	c #B0C2E8",
"] 	c #B0C2E5",
"^ 	c #9AB1DE",
"/ 	c #CBD3E5",
"( 	c #FDFDFD",
"_ 	c #E7E8EA",
": 	c #A0B7E6",
"< 	c #839FD7",
"[ 	c #EDF0F7",
"} 	c #F2F2F2",
"| 	c #C4CEE0",
"1 	c #95ADDC",
"2 	c #94AEE1",
"3 	c #93AEE2",
"4 	c #93ABDD",
"5 	c #8DA2CD",
"6 	c #A9B9D9",
"7 	c #FAFAFA",
"8 	c #E0E2E7",
"9 	c #A1B4DB",
"0 	c #99B1E1",
"a 	c #A0B7E5",
"b 	c #96AFE0",
"c 	c #91A6D0",
"d 	c #8DA6DB",
"e 	c #96B0E3",
"f 	c #B3C5E7",
"g 	c #F6F8FC",
"h 	c #E6E6E6",
"i 	c #A3AEC3",
"j 	c #6782B8",
"k 	c #7583A0",
"l 	c #8793AB",
"m 	c #8893A8",
"n 	c #7D90B5",
"o 	c #7495D6",
"p 	c #6184CB",
"q 	c #657FB2",
"r 	c #8490A6",
"s 	c #838FA7",
"t 	c #788CB3",
"u 	c #6486CC",
"v 	c #C1CADB",
"w 	c #F1F1F1",
"x 	c #ADB0B5",
"y 	c #6D8DCF",
"z 	c #5B76AE",
"A 	c #E0E4ED",
"B 	c #E8E8E8",
"C 	c #B8B8B9",
"D 	c #9196A0",
"E 	c #6F8BC5",
"F 	c #5B7DC3",
"G 	c #5E7AB4",
"H 	c #AEB2BB",
"I 	c #EAEBED",
"J 	c #F5F5F5",
"K 	c #CCCCCC",
"L 	c #A2A5A9",
"M 	c #8093B9",
"N 	c #6184CA",
"O 	c #5A7DC4",
"P 	c #979FAE",
"Q 	c #A4A6AB",
"R 	c #8890A1",
"S 	c #6586C8",
"T 	c #5E84CF",
"U 	c #8BA3D3",
"V 	c #FAFBFD",
"W 	c #D0D0D0",
"X 	c #8497BB",
"Y 	c #A4AAB7",
"Z 	c #D6D6D6",
"` 	c #D9D9D9",
" .	c #C9C9C9",
"..	c #9095A0",
"+.	c #7191D1",
"@.	c #6184C9",
"#.	c #788BB2",
"$.	c #D3D4D5",
"%.	c #CACACA",
"&.	c #949698",
"*.	c #6A86BD",
"=.	c #C1C9D9",
"-.	c #F3F3F3",
";.	c #B2B2B2",
">.	c #878F9F",
",.	c #B4B9C5",
"'.	c #FCFCFC",
").	c #EDEDED",
"!.	c #B1B1B1",
"~.	c #8196C1",
"{.	c #6385C9",
"].	c #708ABE",
"^.	c #EEEEEF",
"/.	c #F6F6F6",
"(.	c #8A97AF",
"_.	c #6789CD",
":.	c #6082C6",
"<.	c #CCD1DB",
"[.	c #E7E7E7",
"}.	c #AEAEAE",
"|.	c #7D8EAE",
"1.	c #6186CE",
"2.	c #597CC2",
"3.	c #D0D7E7",
"4.	c #D3D3D3",
"5.	c #C9CACC",
"6.	c #F6F7F7",
"7.	c #9BA1AB",
"8.	c #7192D2",
"9.	c #6587CC",
"0.	c #8396BD",
"a.	c #F9F9FA",
"b.	c #C2C2C2",
"c.	c #A9AFBB",
"d.	c #E6E8ED",
"e.	c #EEEEEE",
"f.	c #E4E4E4",
"g.	c #F1F3F6",
"h.	c #FEFEFF",
"i.	c #8499C4",
"j.	c #6587CB",
"k.	c #7690C3",
"l.	c #DADADA",
"m.	c #909CB2",
"n.	c #688ACE",
"o.	c #6183C6",
"p.	c #D7DBE6",
"q.	c #D7D7D7",
"r.	c #9199AB",
"s.	c #B0BCD6",
"t.	c #F8F8F8",
"u.	c #F9F9F9",
"v.	c #FDFEFE",
"w.	c #F3F5F8",
"x.	c #D2DAEC",
"y.	c #9CB2DC",
"z.	c #F6F6F9",
"A.	c #DDDDDD",
"B.	c #939CAE",
"C.	c #9AA6BE",
"D.	c #6C8CCE",
"E.	c #5F7FBF",
"F.	c #C3CBDA",
"G.	c #D3D7E0",
"H.	c #9CAFD6",
"I.	c #7D9DDD",
"J.	c #6B89C3",
"K.	c #F3F4F5",
"L.	c #E1E1E1",
"M.	c #969EB0",
"N.	c #D5DAE4",
"O.	c #F5F7F9",
"P.	c #C4CBDA",
"Q.	c #92AADA",
"R.	c #6F8FCF",
"S.	c #6A7FAA",
"T.	c #F0F1F3",
"U.	c #C7C7C7",
"V.	c #929294",
"W.	c #6C90D8",
"X.	c #6584C1",
"Y.	c #F2F3F5",
"Z.	c #969EAD",
"`.	c #B0B7C6",
" +	c #879ECA",
".+	c #6985BC",
"++	c #5C78AF",
"@+	c #6A7C9F",
"#+	c #D5D6DA",
"$+	c #A3A3A4",
"%+	c #7B9CDE",
"&+	c #6684C2",
"*+	c #E5E5E5",
"=+	c #999FAA",
"-+	c #ACB1BB",
";+	c #A7A8AB",
">+	c #9C9FA6",
",+	c #B1B4B9",
"'+	c #DFDFDF",
")+	c #A8A9AA",
"!+	c #7596D8",
"~+	c #6583BF",
"{+	c #F3F6FB",
"]+	c #F9FAFD",
"^+	c #9BA1AC",
"/+	c #D2D7E1",
"(+	c #9CA1AB",
"_+	c #A5A5A6",
":+	c #7496DB",
"<+	c #6684C1",
"[+	c #C0C0C0",
"}+	c #829AC9",
"|+	c #E4E4E5",
"1+	c #98ADD6",
"2+	c #D6DEEE",
"3+	c #9FA5B0",
"4+	c #7595D6",
"5+	c #6A8CCF",
"6+	c #8194BB",
"7+	c #F8F9FA",
"8+	c #A9A9AA",
"9+	c #7F9FDE",
"0+	c #6583C0",
"a+	c #FBFBFB",
"b+	c #BBBBBB",
"c+	c #6789CE",
"d+	c #7790C2",
"e+	c #EEEFF1",
"f+	c #B6C1D8",
"g+	c #758FC4",
"h+	c #DCE1EB",
"i+	c #9BA1AD",
"j+	c #698BD0",
"k+	c #6485C7",
"l+	c #D1D7E3",
"m+	c #ECEFF4",
"n+	c #BAC7E2",
"o+	c #889DC8",
"p+	c #6585C4",
"q+	c #5D7DBE",
"r+	c #5A75AA",
"s+	c #9EB1D7",
"t+	c #D5DDEE",
"u+	c #E2E6ED",
"v+	c #A1ABC0",
"w+	c #6786C4",
"x+	c #5873A9",
"y+	c #B7C1D5",
"z+	c #F3F5F9",
"A+	c #D4DDEE",
"B+	c #9CAED1",
"C+	c #7995CC",
"D+	c #5D7EC2",
"E+	c #5D79B1",
"F+	c #9AAED6",
"G+	c #ABBEE4",
"H+	c #A7BAE0",
"I+	c #8DA3CF",
"J+	c #708DC7",
"K+	c #5973A5",
"L+	c #DFE2E7",
"M+	c #CCD4E4",
"N+	c #90A5CC",
"O+	c #6082C5",
"P+	c #5979B8",
"Q+	c #8197C2",
"R+	c #B6C5E5",
"S+	c #B9BDC5",
"T+	c #8D939D",
"U+	c #8D9199",
"V+	c #8D929A",
"W+	c #9299A6",
"X+	c #A6ADBC",
"Y+	c #CFD5E2",
"Z+	c #BBBFC8",
"`+	c #9299A7",
" @	c #878D9B",
".@	c #989EAA",
"+@	c #B7BECA",
"@@	c #EEF0F4",
"#@	c #A7AEBA",
"$@	c #949BA9",
"%@	c #90949C",
"&@	c #91949C",
"*@	c #9DA1A8",
"=@	c #A4A8B0",
"-@	c #A5A9B1",
";@	c #A2A6AE",
">@	c #989CA4",
",@	c #868C9A",
"'@	c #868D9C",
")@	c #AEB5C1",
"!@	c #D5D5D5",
"~@	c #A0A7B7",
"{@	c #9096A2",
"]@	c #8F939B",
"^@	c #9699A1",
"/@	c #9EA4AF",
"(@	c #B8BFCD",
"_@	c #F5F6F8",
":@	c #F4F4F4",
"<@	c #E9E9E9",
"[@	c #EAEAEA",
"}@	c #E3E3E3",
"|@	c #E0E0E0",
"1@	c #DBDADA",
"2@	c #ECECEC",
"3@	c #7C7B7A",
"4@	c #242321",
"5@	c #838382",
"6@	c #FFFFFE",
"7@	c #CBCACB",
"8@	c #6D6B6D",
"9@	c #10100D",
"0@	c #29292A",
"a@	c #070706",
"b@	c #555553",
"c@	c #E7E7E6",
"d@	c #969697",
"e@	c #5A595A",
"f@	c #131312",
"g@	c #2E3132",
"h@	c #4D4D4E",
"i@	c #262728",
"j@	c #030403",
"k@	c #3F3F3C",
"l@	c #D5D6D4",
"m@	c #DCDCDC",
"n@	c #8C8C8D",
"o@	c #595759",
"p@	c #171616",
"q@	c #2C3031",
"r@	c #A9B4B7",
"s@	c #788184",
"t@	c #333435",
"u@	c #242425",
"v@	c #030303",
"w@	c #282826",
"x@	c #C7C7C5",
"y@	c #E5E5E6",
"z@	c #BEBEBE",
"A@	c #9E9E9F",
"B@	c #8A8A8C",
"C@	c #49494B",
"D@	c #0C0B0B",
"E@	c #C0C7C7",
"F@	c #C3CBC9",
"G@	c #9AA5A9",
"H@	c #818D91",
"I@	c #353739",
"J@	c #2E3031",
"K@	c #010101",
"L@	c #191918",
"M@	c #B2B2B1",
"N@	c #CDCDCE",
"O@	c #B1B1B2",
"P@	c #99999B",
"Q@	c #7C7B7E",
"R@	c #474548",
"S@	c #0C0B0C",
"T@	c #313334",
"U@	c #B8BEBD",
"V@	c #CED4D1",
"W@	c #CFD4D2",
"X@	c #C6CDCC",
"Y@	c #9BA8AA",
"Z@	c #8A959A",
"`@	c #36393B",
" #	c #343638",
".#	c #040404",
"+#	c #1B1B1A",
"@#	c #ABABAA",
"##	c #D9D9DA",
"$#	c #BFBFC0",
"%#	c #A5A5A7",
"&#	c #8B8A8D",
"*#	c #717074",
"=#	c #48464A",
"-#	c #0F0E0E",
";#	c #3F4142",
">#	c #CAD2D0",
",#	c #D0D6D2",
"'#	c #D4DAD6",
")#	c #CCD3CF",
"!#	c #BFC6C5",
"~#	c #C8D0CE",
"{#	c #9BA6A9",
"]#	c #8D9A9E",
"^#	c #343739",
"/#	c #232324",
"(#	c #020202",
"_#	c #151614",
":#	c #B0B0AE",
"<#	c #C8C8C9",
"[#	c #B0AFB2",
"}#	c #98979A",
"|#	c #807F83",
"1#	c #6A696C",
"2#	c #4B494C",
"3#	c #111011",
"4#	c #A9AFB0",
"5#	c #C2CAC7",
"6#	c #D1D7D3",
"7#	c #90989A",
"8#	c #5A666D",
"9#	c #758087",
"0#	c #B0B9BB",
"a#	c #B1BBBB",
"b#	c #99A6AA",
"c#	c #808F96",
"d#	c #2E3234",
"e#	c #151514",
"f#	c #AFAFAE",
"g#	c #D3D3D4",
"h#	c #BDBDBE",
"i#	c #A7A6A8",
"j#	c #919093",
"k#	c #7B7B7D",
"l#	c #656567",
"m#	c #191718",
"n#	c #191D2A",
"o#	c #030202",
"p#	c #222323",
"q#	c #959C9B",
"r#	c #C5CBC9",
"s#	c #CDD4D0",
"t#	c #7E898E",
"u#	c #7C878E",
"v#	c #869196",
"w#	c #B5BFBF",
"x#	c #C7D0D0",
"y#	c #9FACAF",
"z#	c #839299",
"A#	c #363B3E",
"B#	c #232425",
"C#	c #0F0F10",
"D#	c #20201F",
"E#	c #C5C5C5",
"F#	c #C9C9CA",
"G#	c #B5B5B6",
"H#	c #A0A0A1",
"I#	c #8B8B8C",
"J#	c #777779",
"K#	c #646466",
"L#	c #4C4B4E",
"M#	c #262423",
"N#	c #1A1918",
"O#	c #384266",
"P#	c #27354F",
"Q#	c #040403",
"R#	c #0A0A0A",
"S#	c #7A7D7C",
"T#	c #C2C9C8",
"U#	c #C1C7C7",
"V#	c #828D91",
"W#	c #788387",
"X#	c #7A8689",
"Y#	c #C2CBCA",
"Z#	c #C8D1D0",
"`#	c #A3AFB3",
" $	c #8B9AA1",
".$	c #4E5355",
"+$	c #1E1E1F",
"@$	c #2A2B2C",
"#$	c #CECECE",
"$$	c #E8E8E9",
"%$	c #C2C1C2",
"&$	c #ADADAE",
"*$	c #9B9A9C",
"=$	c #888889",
"-$	c #757476",
";$	c #636265",
">$	c #4E4D4F",
",$	c #252323",
"'$	c #595126",
")$	c #292C25",
"!$	c #191917",
"~$	c #131625",
"{$	c #333F5C",
"]$	c #041311",
"^$	c #030504",
"/$	c #656867",
"($	c #ABB3B6",
"_$	c #C4CBCA",
":$	c #8D989C",
"<$	c #606F76",
"[$	c #C9D2D1",
"}$	c #ABB4B7",
"|$	c #2D2E2E",
"1$	c #202222",
"2$	c #B6B7B6",
"3$	c #FDFDFE",
"4$	c #CECECF",
"5$	c #BCBBBD",
"6$	c #AAA9AB",
"7$	c #989799",
"8$	c #868587",
"9$	c #747476",
"0$	c #636264",
"a$	c #4F4E51",
"b$	c #2A2827",
"c$	c #1E1E1A",
"d$	c #B69C38",
"e$	c #B39D3A",
"f$	c #161515",
"g$	c #2F364F",
"h$	c #293E5D",
"i$	c #0B0F10",
"j$	c #030203",
"k$	c #505454",
"l$	c #A8B1B1",
"m$	c #C8CFCD",
"n$	c #C0C8C6",
"o$	c #CBD2D0",
"p$	c #CAD0CF",
"q$	c #C5CBCD",
"r$	c #3D3F41",
"s$	c #17181A",
"t$	c #989999",
"u$	c #DADADB",
"v$	c #CAC9CA",
"w$	c #A9A7A9",
"x$	c #888789",
"y$	c #78777A",
"z$	c #68666A",
"A$	c #575559",
"B$	c #2E2C2C",
"C$	c #1D1D19",
"D$	c #123435",
"E$	c #222820",
"F$	c #524622",
"G$	c #3A3C40",
"H$	c #242E2D",
"I$	c #151414",
"J$	c #05060A",
"K$	c #404A72",
"L$	c #162630",
"M$	c #494B4B",
"N$	c #BBC2C1",
"O$	c #CDD2CF",
"P$	c #CDD3D0",
"Q$	c #CED5D5",
"R$	c #4E5153",
"S$	c #131415",
"T$	c #7D7E7F",
"U$	c #D5D4D5",
"V$	c #C5C5C6",
"W$	c #A5A4A6",
"X$	c #959497",
"Y$	c #858587",
"Z$	c #767578",
"`$	c #666569",
" %	c #57575B",
".%	c #302E2E",
"+%	c #1E1C1B",
"@%	c #373635",
"#%	c #2A2E25",
"$%	c #1D2528",
"%%	c #41313D",
"&%	c #454541",
"*%	c #36383A",
"=%	c #322F2B",
"-%	c #1B1B1B",
";%	c #0D0E14",
">%	c #1E253C",
",%	c #151D2E",
"'%	c #010403",
")%	c #343535",
"!%	c #B7BDBC",
"~%	c #C9D0CD",
"{%	c #585D5D",
"]%	c #727476",
"^%	c #ECECED",
"/%	c #E1E1E2",
"(%	c #D2D2D3",
"_%	c #C4C3C5",
":%	c #B6B6B8",
"<%	c #A8A8AA",
"[%	c #9A999C",
"}%	c #8C8B8E",
"|%	c #7F7E81",
"1%	c #707073",
"2%	c #636266",
"3%	c #3B393B",
"4%	c #191815",
"5%	c #23211C",
"6%	c #373B3C",
"7%	c #2B2B2D",
"8%	c #2F2525",
"9%	c #76587E",
"0%	c #41303C",
"a%	c #23242E",
"b%	c #5D6695",
"c%	c #2E4252",
"d%	c #202223",
"e%	c #0D0D10",
"f%	c #434F74",
"g%	c #192333",
"h%	c #010102",
"i%	c #323333",
"j%	c #636666",
"k%	c #0B0C0D",
"l%	c #5D5E61",
"m%	c #D5D5D6",
"n%	c #98989A",
"o%	c #8C8C8E",
"p%	c #808082",
"q%	c #747377",
"r%	c #474547",
"s%	c #1B1916",
"t%	c #1A1914",
"u%	c #282B2D",
"v%	c #1E2525",
"w%	c #2A2724",
"x%	c #464A4E",
"y%	c #252228",
"z%	c #323145",
"A%	c #4F5264",
"B%	c #4D4851",
"C%	c #333C53",
"D%	c #30394F",
"E%	c #272832",
"F%	c #15171E",
"G%	c #1A1E33",
"H%	c #2C3E58",
"I%	c #020403",
"J%	c #080809",
"K%	c #44474A",
"L%	c #D8D8D8",
"M%	c #D0CFCF",
"N%	c #BEBDBE",
"O%	c #B4B4B4",
"P%	c #ABABAC",
"Q%	c #A3A3A3",
"R%	c #9B9B9C",
"S%	c #949494",
"T%	c #8D8D8E",
"U%	c #646364",
"V%	c #1C1917",
"W%	c #141512",
"X%	c #282B2B",
"Y%	c #201E1E",
"Z%	c #151513",
"`%	c #242725",
" &	c #282E2F",
".&	c #222125",
"+&	c #535F88",
"@&	c #272A34",
"#&	c #445481",
"$&	c #6379A7",
"%&	c #2E334F",
"&&	c #565E8F",
"*&	c #1D1F26",
"=&	c #323A58",
"-&	c #151C26",
";&	c #48494C",
">&	c #BEBEBF",
",&	c #B4B3B5",
"'&	c #A6A6A8",
")&	c #989899",
"!&	c #8A898B",
"~&	c #7C7B7D",
"{&	c #6D6C6E",
"]&	c #5F5E5F",
"^&	c #4A4A4A",
"/&	c #201E1B",
"(&	c #161715",
"_&	c #1B1D1A",
":&	c #1A1A16",
"<&	c #181815",
"[&	c #222427",
"}&	c #21221F",
"|&	c #292824",
"1&	c #3C4045",
"2&	c #232A2B",
"3&	c #262420",
"4&	c #38405C",
"5&	c #3C4255",
"6&	c #403D30",
"7&	c #2C3653",
"8&	c #262A36",
"9&	c #1E1E1E",
"0&	c #3D3D41",
"a&	c #D2D1D2",
"b&	c #DFDFE0",
"c&	c #D6D5D6",
"d&	c #CECDCE",
"e&	c #C6C5C7",
"f&	c #BEBEC0",
"g&	c #B8B7B9",
"h&	c #AEADB0",
"i&	c #A2A0A4",
"j&	c #88868B",
"k&	c #7A797E",
"l&	c #646367",
"m&	c #232221",
"n&	c #1A1A15",
"o&	c #1A1916",
"p&	c #1A1B1C",
"q&	c #383533",
"r&	c #181917",
"s&	c #202425",
"t&	c #292623",
"u&	c #1A1B1A",
"v&	c #282E31",
"w&	c #1C201F",
"x&	c #1F1F1F",
"y&	c #282A2A",
"z&	c #283141",
"A&	c #6476A8",
"B&	c #2D4254",
"C&	c #4B4F76",
"D&	c #3C4364",
"E&	c #37383A",
"F&	c #CBCACA",
"G&	c #ECEBEC",
"H&	c #D1D0D1",
"I&	c #C5C4C5",
"J&	c #BAB9BA",
"K&	c #AFAEAF",
"L&	c #9D9D9E",
"M&	c #959496",
"N&	c #8F8E91",
"O&	c #8A8A8D",
"P&	c #2C2A29",
"Q&	c #251F17",
"R&	c #232526",
"S&	c #201D19",
"T&	c #858B8F",
"U&	c #636667",
"V&	c #1C1A17",
"W&	c #161918",
"X&	c #1C1C1B",
"Y&	c #1C1C1D",
"Z&	c #22201D",
"`&	c #2B2E31",
" *	c #1E1E1B",
".*	c #272A36",
"+*	c #30384A",
"@*	c #363A62",
"#*	c #3A3D45",
"$*	c #EBEBEB",
"%*	c #CDCDCC",
"&*	c #BFBEBE",
"**	c #B3B2B1",
"=*	c #A7A6A6",
"-*	c #9E9C9D",
";*	c #959494",
">*	c #8B898A",
",*	c #7F7D7F",
"'*	c #717072",
")*	c #616063",
"!*	c #2F2D2D",
"~*	c #201C15",
"{*	c #3B3F40",
"]*	c #1D1C1C",
"^*	c #252522",
"/*	c #7B8184",
"(*	c #454747",
"_*	c #3F4040",
":*	c #5C5F5E",
"<*	c #1C1E1D",
"[*	c #1E1F21",
"}*	c #211F19",
"|*	c #1C1D1D",
"1*	c #232A2C",
"2*	c #24221D",
"3*	c #303334",
"4*	c #393C40",
"5*	c #232220",
"6*	c #303132",
"7*	c #AEADAE",
"8*	c #D7D7D6",
"9*	c #C6C6C5",
"0*	c #B7B6B5",
"a*	c #A7A7A6",
"b*	c #9B9A99",
"c*	c #908E8D",
"d*	c #82807F",
"e*	c #757372",
"f*	c #6B6868",
"g*	c #4D4949",
"h*	c #131310",
"i*	c #2D2D2B",
"j*	c #161615",
"k*	c #2D2F2D",
"l*	c #545655",
"m*	c #535557",
"n*	c #474949",
"o*	c #46423A",
"p*	c #7F8486",
"q*	c #585A5D",
"r*	c #1C1A15",
"s*	c #1C1F20",
"t*	c #222222",
"u*	c #202020",
"v*	c #1A1A1A",
"w*	c #2E3233",
"x*	c #2A2B2D",
"y*	c #A1A1A1",
"z*	c #F3F3F2",
"A*	c #DDDDDC",
"B*	c #C7C7C6",
"C*	c #B5B4B3",
"D*	c #A6A5A4",
"E*	c #999897",
"F*	c #888887",
"G*	c #787776",
"H*	c #6A6968",
"I*	c #34312F",
"J*	c #12120E",
"K*	c #212322",
"L*	c #212220",
"M*	c #454442",
"N*	c #767A7D",
"O*	c #464647",
"P*	c #333433",
"Q*	c #82898C",
"R*	c #444346",
"S*	c #3A3A38",
"T*	c #808588",
"U*	c #282927",
"V*	c #161714",
"W*	c #1F1F1B",
"X*	c #1E1E1D",
"Y*	c #24292E",
"Z*	c #2B2B2C",
"`*	c #959595",
" =	c #EFEFEF",
".=	c #BDBDBC",
"+=	c #AAAAA9",
"@=	c #979694",
"#=	c #858482",
"$=	c #757472",
"%=	c #494846",
"&=	c #14130F",
"*=	c #181712",
"==	c #3E4040",
"-=	c #838688",
";=	c #343232",
">=	c #434545",
",=	c #6A6D6E",
"'=	c #3F4042",
")=	c #414343",
"!=	c #5C5B55",
"~=	c #5F6364",
"{=	c #383838",
"]=	c #231F19",
"^=	c #232424",
"/=	c #242224",
"(=	c #252525",
"_=	c #DCDCDB",
":=	c #B9B8B8",
"<=	c #999997",
"[=	c #81817F",
"}=	c #706F6C",
"|=	c #151410",
"1=	c #313231",
"2=	c #444747",
"3=	c #464848",
"4=	c #616467",
"5=	c #3C3C3A",
"6=	c #4E4B43",
"7=	c #818689",
"8=	c #383632",
"9=	c #1A1813",
"0=	c #292B2C",
"a=	c #1E1D1C",
"b=	c #262524",
"c=	c #A1A0A0",
"d=	c #DADAD9",
"e=	c #B0B0B0",
"f=	c #8C8C8B",
"g=	c #636260",
"h=	c #1A1814",
"i=	c #161511",
"j=	c #161410",
"k=	c #404344",
"l=	c #6F757A",
"m=	c #292522",
"n=	c #5F605F",
"o=	c #777A7C",
"p=	c #272522",
"q=	c #111312",
"r=	c #2F2C25",
"s=	c #1B1917",
"t=	c #282724",
"u=	c #A2A2A1",
"v=	c #636361",
"w=	c #1A1815",
"x=	c #171612",
"y=	c #1B1B18",
"z=	c #6C7073",
"A=	c #525354",
"B=	c #383837",
"C=	c #181714",
"D=	c #24201A",
"E=	c #131715",
"F=	c #2A2A27",
"G=	c #AEAEAC",
"H=	c #6F6E6E",
"I=	c #181713",
"J=	c #191714",
"K=	c #181613",
"L=	c #333432",
"M=	c #4B4D4F",
"N=	c #2E2D34",
"O=	c #211F18",
"P=	c #171B1B",
"Q=	c #1F3530",
"R=	c #A8A7A5",
"S=	c #999998",
"T=	c #232532",
"U=	c #616D9D",
"V=	c #2C364B",
"W=	c #1F201B",
"X=	c #9C9A98",
"Y=	c #D5D5D4",
"Z=	c #605F5C",
"`=	c #1B1A16",
" -	c #171613",
".-	c #2D3046",
"+-	c #282A30",
"@-	c #C1C1C0",
"#-	c #676664",
"$-	c #4F4E49",
"%-	c #B2B1B0",
". . . . . . . . . . . . . . . . . . . . . . . . . . . . . . . . . . . . . . . . . . . . . . . . ",
". . . . . . . . . . . . . . . . . . . . . . . . . . . . . . . . . . . . . . . . . . . . . . . . ",
". + @ . . . . . . . . . # $ % . . . . . . . . . . . . . . . . . . . . . . . . . . . . . . . . . ",
"& * = - ; > , ' ) ! ~ { ] ^ / . ( _ : < [ . } | 1 2 3 4 5 6 . . . . 7 8 9 0 a b c c d e f g . . ",
"h i j k l m n o p q r s t u v . w x y z A # B C D E F G H I . . . . J K L M N O P Q R S T U V . ",
"W X Y Z `  ...+.@.#.$.%.&.*.=.. -.;.>.,.( . '.).!.~.{.].^.( . . . . # /.%.(._.:.<.[.}.|.1.2.3.. ",
"4.5.6.. . ).7.8.9.0.a.7 b.c.d.. # e.f.g.h.. . '.b.i.j.k.a.. . . . . . . l.m.n.o.p.. q.r._.:.s.. ",
"t.u.. . . ).7.8.9.0.a.. w ).# . v.w.x.y.z.. . '.b.i.j.k.a.. . . . . . . A.B.n.o.p.. A.C.D.E.F.. ",
". . . . . ).7.8.9.0.a.. . . . & G.H.I.J.K.. . '.b.i.j.k.a.. . . . . . . L.M.n.o.N.O.P.Q.R.S.T.. ",
". . . . . ).7.8.9.0.a.. . . . } U.V.W.X.Y.. . '.b.i.j.k.a.. . . . . . . L.Z.n.o.`. +.+++@+#+# . ",
". . . . . ).7.8.9.0.a.. . . . # e.$+%+&+Y.. . '.b.i.j.k.a.. . . . . . . *+=+n.o.-+;+>+,+'+'.. . ",
". . . . . ).7.8.9.0.a.. . . . . } )+!+~+Y.. . '.b.i.j.k.a.. . . . # {+]+[.^+n.o./+} w t.# . . . ",
". . . . . ).(+8.9.0.a.. . . . . } _+:+<+Y.. . '.[+}+j.k.a.. . . # |+1+2+[.^+n.o.p.. . . . . . . ",
". . . . . ).3+4+5+6+7+. . . . . -.8+9+0+Y.. . a+b+}+c+d+a.. . # e+f+g+h+[.i+j+k+l+. . . . . . . ",
". . . '.m+n+o+p+q+r+s+t+. . . # u+v+w+x+y+z+u.A+B+C+D+E+F+G+G+H+I+J+K+L+M+N+O+P+Q+R+z+. . . . . ",
". . ( B S+Z.T+U+V+W+X+Y+. . . e.Z+`+ @.@+@@@A.#@$@%@&@*@=@-@;@>@,@'@)@!@~@{@]@^@/@(@_@. . . . . ",
". . # :@[.h <@B *+f.<@7 . . . & [.f.f.h -.# } h B <@<@[@[@[@<@h }@|@1@2@*+<@<@B h -.# . . . . . ",
". . . . . . . . . . . . . . . . . . . . . . . . . . . . . . . . ).3@4@5@7 . . . . . . . . . . . ",
". . . . . . . . . . . . . . . . . . . . . . . . . . . . . 6@-.7@8@9@0@a@b@c@. . . . . . . . . . ",
". . . . . . . . . . . . . . . . . . . . . . . . . . . . J K d@e@f@g@h@i@j@k@l@. . . . . . . . . ",
". . . . . . . . . . . . . . . . . . . . . . . . . . a+m@8+n@o@p@q@r@s@t@u@v@w@x@. . . . . . . . ",
". . . . . . . . . . . . . . . . . . . . . . . . a+y@z@A@B@C@D@g@E@F@G@H@I@J@K@L@M@. . . . . . . ",
". . . . . . . . . . . . . . . . . . . . . . '.).N@O@P@Q@R@S@T@U@V@W@X@Y@Z@`@ #.#+#@## . . . . . ",
". . . . . . . . . . . . . . . . . . . . # } ##$#%#&#*#=#-#;#>#,#'#)#!#~#{#]#^#/#(#_#:## . . . . ",
". . . . . . . . . . . . . . . . . . # J L.<#[#}#|#1#2#3#3#4#5#6#7#8#9#0#a#b#c#d#(#(#e#f#. . . . ",
". . . . . . . . . . . . . . . . . 7 <@g#h#i#j#k#l#C@m#n#o#p#q#r#s#t#u#v#w#x#y#z#A#B#C#D#E#. . . ",
". . . . . . . . . . . . . . . # } '+F#G#H#I#J#K#L#M#N#O#P#Q#R#S#T#U#V#W#X#Y#Z#`# $.$+$@$#$. . . ",
". . . . . . . . . . . . . . 7 $$!@%$&$*$=$-$;$>$,$'$)$!$~${$]$^$/$($_$:$<$H@[$x#}$|$1$2$. . . . ",
". . . . . . . . . . . . 3$-.L.4$5$6$7$8$9$0$a$b$c$d$e$+$f$g$h$i$j$k$l$m$n$o$p$q$r$s$t$( . . . . ",
". . . . . . . . . . . a+2@u$v$C w$}#x$y$z$A$B$C$D$E$F$G$H$I$J$K$L$(#M$N$O$P$Q$R$S$T$'.. . . . . ",
". . . . . . . . . ( J *+U$V$G#W$X$Y$Z$`$ %.%+%@%#%$%%%&%*%=%-%;%>%,%'%)%!%~%{%C#]%t.. . . . . . ",
". . . . . . . # t.^%/%(%_%:%<%[%}%|%1%2%3%4%5%6%7%8%9%0%a%b%c%d%e%f%g%h%i%j%k%l%e.. . . . . . . ",
". . . . . . ( :@$$'+m%F#h#O@%#n%o%p%q%r%s%t%u%v%w%x%y%z%A%B%C%D%E%F%G%H%I%J%K%c@. . . . . . . . ",
". . . . . 7 e.}@L%M%U.N%O%P%Q%R%S%T%U%V%W%X%Y%Z%`% &w@.&+&@&#&$&%&&&*&=&-&;&A.. . . . . . . . . ",
". . . . a.)./%m%F#>&,&'&)&!&~&{&]&^&/&(&_&+#:&<&[&}&|&1&2&3&4&5&6&7&8&9&0&a&. . . . . . . . . . ",
". . . . } b&c&d&e&f&g&h&i&X$j&k&l&m&n&o&p&q&r&s&t&u&v&w&x&y&z&A&B&C&D&E&F&. . . . . . . . . . . ",
". . . . G&H&I&J&K&W$L&M&N&}%O&|#P&Q&i%R&S&T&U&V&W&X&Y&Z&`%`& *.*+*@*#*h#. . . . . . . . . . . . ",
". . . . $*%*&***=*-*;*>*,*'*)*!*~*{*]*^*/*(*_*:*<*[*}*|*1*2*3*4*5*6*7*# . . . . . . . . . . . . ",
". . . . w 8*9*0*a*b*c*d*e*f*g*h*i*j*k*l*m*n*o*p*q*r*s*t*s%u*v*w*x*y*( . . . . . . . . . . . . . ",
". . . . # z*A*B*C*D*E*F*G*H*I*J*K*L*M*N*O*P*Q*R*S*T*U*V*W*X*Y*Z*`*. . . . . . . . . . . . . . . ",
". . . . . . '. =!@.=+=@=#=$=%=&=*===-=;=>=,='=)=!=~={=]=^=/=(==$a+. . . . . . . . . . . . . . . ",
". . . . . . . . ( } _=:=<=[=}=Z&|=|=1=2=3=4=5=6=7=8=9=0=a=b=c=t.. . . . . . . . . . . . . . . . ",
". . . . . . . . . . . t.d=e=f=g=h=i=j=k=l=m=n=o=p=q=r=s=t=M@. . . . . . . . . . . . . . . . . . ",
". . . . . . . . . . . . # J 4.u=v=w=x=x=y=z=A=B=C=D=E=F=G=# . . . . . . . . . . . . . . . . . . ",
". . . . . . . . . . . . . . . w E#H=I=J=K=L=M=N=O=P=Q=R=# . . . . . . . . . . . . . . . . . . . ",
". . . . . . . . . . . . . . . . .  =S=p=x=I=T=U=V=W=X=. . . . . . . . . . . . . . . . . . . . . ",
". . . . . . . . . . . . . . . . . . ( Y=Z=`= -.-+-@='.. . . . . . . . . . . . . . . . . . . . . ",
". . . . . . . . . . . . . . . . . . . . '.@-#-$-%-'.. . . . . . . . . . . . . . . . . . . . . . "};
