/* XPM */
static char * archived_xpm[] = {
"16 16 119 2",
"  	c None",
". 	c #54514F",
"+ 	c #3D3D3D",
"@ 	c #404040",
"# 	c #585553",
"$ 	c #666565",
"% 	c #797877",
"& 	c #767676",
"* 	c #6B6B6B",
"= 	c #585858",
"- 	c #5F5E5D",
"; 	c #6D6C6C",
"> 	c #8D8C8B",
", 	c #919191",
"' 	c #858585",
") 	c #7A7A7A",
"! 	c #717171",
"~ 	c #686868",
"{ 	c #5A5A5A",
"] 	c #524F4D",
"^ 	c #6A6969",
"/ 	c #969493",
"( 	c #A0A0A0",
"_ 	c #9A9A9A",
": 	c #888888",
"< 	c #7F7F7F",
"[ 	c #777777",
"} 	c #707070",
"| 	c #6A6A6A",
"1 	c #5D5D5D",
"2 	c #4D4540",
"3 	c #656463",
"4 	c #928F8D",
"5 	c #A6A6A6",
"6 	c #A5A5A5",
"7 	c #A2A2A2",
"8 	c #9B9B9B",
"9 	c #949494",
"0 	c #8B8B8B",
"a 	c #848484",
"b 	c #7D7D7D",
"c 	c #696969",
"d 	c #4B4A49",
"e 	c #A09C9A",
"f 	c #B1B1B1",
"g 	c #AAAAAA",
"h 	c #A4A4A4",
"i 	c #9D9D9D",
"j 	c #959595",
"k 	c #8D8D8D",
"l 	c #868686",
"m 	c #828282",
"n 	c #7C7C7C",
"o 	c #727272",
"p 	c #656565",
"q 	c #303030",
"r 	c #4D4D4D",
"s 	c #BBBABA",
"t 	c #B4B4B4",
"u 	c #929292",
"v 	c #9C9C9C",
"w 	c #A1A1A1",
"x 	c #979797",
"y 	c #909090",
"z 	c #898989",
"A 	c #837D7A",
"B 	c #7C6354",
"C 	c #323232",
"D 	c #444444",
"E 	c #9B9A9A",
"F 	c #B3B3B3",
"G 	c #A8A8A8",
"H 	c #9E9E9E",
"I 	c #8E8E8E",
"J 	c #838383",
"K 	c #8F8784",
"L 	c #876C5C",
"M 	c #8C8380",
"N 	c #8E6F5B",
"O 	c #454545",
"P 	c #8C8C8C",
"Q 	c #A7A7A7",
"R 	c #878787",
"S 	c #8E8784",
"T 	c #846E61",
"U 	c #9A908C",
"V 	c #94715C",
"W 	c #484443",
"X 	c #4E382A",
"Y 	c #676767",
"Z 	c #737373",
"` 	c #939393",
" .	c #909191",
"..	c #81807F",
"+.	c #908682",
"@.	c #876B5A",
"#.	c #9E938E",
"$.	c #92705B",
"%.	c #4A4644",
"&.	c #563C2C",
"*.	c #523E31",
"=.	c #616161",
"-.	c #606060",
";.	c #908885",
">.	c #895E44",
",.	c #9B8F8A",
"'.	c #95725D",
").	c #4E4946",
"!.	c #5A4133",
"~.	c #5B5B5B",
"{.	c #9D9390",
"].	c #946448",
"^.	c #494341",
"/.	c #594032",
"(.	c #3C3C3C",
"_.	c #444240",
":.	c #573C2C",
"<.	c #5B4336",
"[.	c #5A4234",
"                                ",
"                  . + @         ",
"              # $ % & * =       ",
"          - ; > , ' ) ! ~ {     ",
"      ] ^ / ( _ , : < [ } | 1   ",
"  2 3 4 5 6 7 8 9 0 a b & } c + ",
"d e f g 6 h 7 i j k l m n o p q ",
"r s t u l v w i x y z m & A B C ",
"D E F 7 G G H _ j I J K L M N   ",
"O a P G Q ( 8 9 R S T U V W X   ",
"  Y Z & `  ...+.@.#.$.%.&.  *.  ",
"    =.-.~ ;.>.,.'.).&.  !.      ",
"      ~.-.{.].^.&.  /.          ",
"        (._.:.  <.              ",
"            [.                  ",
"                                "};
