/* XPM */
static char *down_xpm[] = {
"16 14 3 1",
" 	c	None",
"#	c	purple",
"*	c       #000000",
"                ",
"     ###        ",
"     ###        ",
"     ###        ",
"     ###        ",
"     ###        ",
"     ###        ",
"     ###        ",
"     ###        ",
"   #######      ",
"    #####       ",
"     ###        ",
"      #         ",
"                "
};
