/* XPM */
static char * keyboard_mini_xpm[] = {
"16 16 72 1",
" 	c None",
".	c #525252",
"+	c #474747",
"@	c #494949",
"#	c #828282",
"$	c #666666",
"%	c #5E5E5E",
"&	c #4E4E4E",
"*	c #5D5D5D",
"=	c #676767",
"-	c #A8A8A8",
";	c #B4B4B4",
">	c #A7A7A7",
",	c #A1A1A1",
"'	c #929292",
")	c #888888",
"!	c #797979",
"~	c #737373",
"{	c #DBDBDB",
"]	c #CECECE",
"^	c #C0C0C0",
"/	c #AEAEAE",
"(	c #919191",
"_	c #949494",
":	c #878787",
"<	c #818181",
"[	c #838383",
"}	c #757575",
"|	c #747474",
"1	c #4B4B4B",
"2	c #B2B2B2",
"3	c #B5B5B5",
"4	c #AAAAAA",
"5	c #9D9D9D",
"6	c #999999",
"7	c #8E8E8E",
"8	c #8B8B8B",
"9	c #7B7B7B",
"0	c #767676",
"a	c #7C7C7C",
"b	c #6E6E6E",
"c	c #696969",
"d	c #6B6B6B",
"e	c #9F9F9F",
"f	c #A5A5A5",
"g	c #989898",
"h	c #8A8A8A",
"i	c #808080",
"j	c #7E7E7E",
"k	c #535353",
"l	c #575757",
"m	c #B9B9B9",
"n	c #A2A2A2",
"o	c #7F7F7F",
"p	c #6C6C6C",
"q	c #3B3B3B",
"r	c #434343",
"s	c #CACACA",
"t	c #9E9E9E",
"u	c #969696",
"v	c #ABABAB",
"w	c #959595",
"x	c #646464",
"y	c #313131",
"z	c #1F1F1F",
"A	c #CCCCCC",
"B	c #B8B8B8",
"C	c #555555",
"D	c #222222",
"E	c #B3B3B3",
"F	c #404040",
"G	c #0B0B0B",
"                ",
"                ",
"        .+      ",
"                ",
"          @#$%  ",
"   &*=-;>,')!~  ",
" {]^/>('_:<[}|1 ",
" 23456578)90abc ",
" d;efg'(hij~0!ak",
" lm-ng_(o::__pq ",
" rst(ug5vwxy    ",
" zAvBBhCD       ",
"  E!FG          ",
"                ",
"                ",
"                "};
