/* XPM */
static char * calc_dirlist_xpm[] = {
"32 32 10 1",
" 	c None",
".	c None",
"+	c #000000",
"@	c #7F7F7F",
"#	c #808000",
"$	c #000080",
"%	c #00007F",
"&	c #0000FF",
"*	c #7F0000",
"=	c #7F7F00",
"................................",
"................................",
"................................",
"....+++@+.+.....................",
"...++.......@...................",
"...+@.........@.................",
"...++...........................",
"...@++..........................",
"....++..........................",
"....++..........................",
"...++@..........................",
"..++++++++++++++++++++++++++++..",
".+++++#+@@@@@+++++@@+++++++++++.",
"++++++++++++++++++++++++++++++++",
"++++$@.@.@.......@.@.+%$++%%$+++",
"++$&+@@@@@@@@@@@@@@@@+%*+%&$&%++",
"+&++$.....@..........+**+%$&%$++",
"++$&+.@.@.@.@.@.@.@.@+#=+%&$&%++",
"+&++$.....@..........+%#++%%%+++",
"++$&+.@.@.@..@.@.@.@.+$%++++++++",
"+&+++.....@..........++++%%$%$++",
"+++++.@.@.@.@.@.@.@.@+++++++++++",
"++++++++++++++++++++++++++++++++",
"+@+@+@+@+@+@+@+@+@+@+++.+.+.+@++",
"++++++++++++++++++++++++++++++++",
"++@+@+@+@+@+@+@+@+@++++.+.+.+@++",
"++++++++++++++++++++++++++++++++",
"+++@+@+@+@+@+@+@+@+%%++.+.+.+@++",
"+++++++++++++++++++%%+++++++++++",
"+@+@+@+@+@@@@@+@+@+$%++.+.+.+&++",
".++++++++++++++++++++++++++++++.",
"..++++++++++++++++++++++++++++.."};
