/* XPM */
static char * ready_xpm[] = {
"28 26 310 2",
"  	c None",
". 	c #2F2F2F",
"+ 	c #363636",
"@ 	c #2D2D2D",
"# 	c #717171",
"$ 	c #A6A6A6",
"% 	c #9A9A9A",
"& 	c #434343",
"* 	c #070707",
"= 	c #1E1E1E",
"- 	c #9C9C9C",
"; 	c #FFFFFE",
"> 	c #FFFFF9",
", 	c #FFFFF8",
"' 	c #FFFFFC",
") 	c #C3C3BE",
"! 	c #232310",
"~ 	c #212121",
"{ 	c #8B8B8B",
"] 	c #D0D0D0",
"^ 	c #FFFFFB",
"/ 	c #FFFFE3",
"( 	c #FFFFD9",
"_ 	c #FFFFE2",
": 	c #FFFFFA",
"< 	c #C0C092",
"[ 	c #6C6C00",
"} 	c #2A2A2A",
"| 	c #D3D3D3",
"1 	c #FFFFFD",
"2 	c #FFFFF6",
"3 	c #FFFFCE",
"4 	c #FFFFBE",
"5 	c #F7F7B8",
"6 	c #F1F1B3",
"7 	c #F6F6D0",
"8 	c #FCFCF1",
"9 	c #D6D65D",
"0 	c #1C1C1C",
"a 	c #C9C9C9",
"b 	c #FFFFF0",
"c 	c #FFFFC6",
"d 	c #A6A67C",
"e 	c #727255",
"f 	c #C4C4A3",
"g 	c #F0F0B1",
"h 	c #C3C31C",
"i 	c #474745",
"j 	c #C6C6C5",
"k 	c #FFFFE6",
"l 	c #FDFDBD",
"m 	c #F3F3B5",
"n 	c #EFEFB2",
"o 	c #F5F5B7",
"p 	c #EBEBAF",
"q 	c #4B4B38",
"r 	c #0F0F0B",
"s 	c #0E0E0A",
"t 	c #030302",
"u 	c #000000",
"v 	c #191912",
"w 	c #C3C391",
"x 	c #E2E277",
"y 	c #B4B400",
"z 	c #42423F",
"A 	c #BFBEBE",
"B 	c #FFFFE8",
"C 	c #EEEEB1",
"D 	c #878764",
"E 	c #68684D",
"F 	c #B5B587",
"G 	c #EAEAAE",
"H 	c #A3A37A",
"I 	c #969670",
"J 	c #737355",
"K 	c #0C0C09",
"L 	c #464634",
"M 	c #F4F4B6",
"N 	c #CFCF4E",
"O 	c #A1A100",
"P 	c #ACACAC",
"Q 	c #FFFFEA",
"R 	c #FEFEBD",
"S 	c #E6E6AB",
"T 	c #DBDBA3",
"U 	c #ECECB0",
"V 	c #434332",
"W 	c #10100B",
"X 	c #9E9E75",
"Y 	c #868664",
"Z 	c #020202",
"` 	c #1B1B14",
" .	c #898966",
"..	c #F1F1A3",
"+.	c #B4B421",
"@.	c #323232",
"#.	c #A4A4A4",
"$.	c #FFFFEC",
"%.	c #828261",
"&.	c #EEEEB2",
"*.	c #B9B98A",
"=.	c #444432",
"-.	c #060604",
";.	c #BABA8A",
">.	c #222219",
",.	c #2C2C21",
"'.	c #AAAA7F",
").	c #E4E4AA",
"!.	c #DBDB7D",
"~.	c #979700",
"{.	c #343434",
"].	c #9A999A",
"^.	c #FFFFEE",
"/.	c #FFFFBF",
"(.	c #2B2B20",
"_.	c #080806",
":.	c #3D3D2D",
"<.	c #ADAD80",
"[.	c #B6B688",
"}.	c #373729",
"|.	c #1E1E16",
"1.	c #606047",
"2.	c #E2E2A8",
"3.	c #D5D59F",
"4.	c #838362",
"5.	c #010101",
"6.	c #333326",
"7.	c #96966F",
"8.	c #C2C254",
"9.	c #797900",
"0.	c #8F8F8F",
"a.	c #FFFFC1",
"b.	c #C4C492",
"c.	c #B6B687",
"d.	c #191913",
"e.	c #626249",
"f.	c #212118",
"g.	c #C6C694",
"h.	c #F4F4B5",
"i.	c #F9F9B5",
"j.	c #A8A82A",
"k.	c #565600",
"l.	c #383838",
"m.	c #848483",
"n.	c #FFFFF2",
"o.	c #FFFFC2",
"p.	c #A6A67B",
"q.	c #484835",
"r.	c #12120D",
"s.	c #6D6D51",
"t.	c #CECE99",
"u.	c #9F9F76",
"v.	c #494936",
"w.	c #A7A77C",
"x.	c #2D2D21",
"y.	c #25251B",
"z.	c #7A7A5B",
"A.	c #C0C08F",
"B.	c #E8E894",
"C.	c #8D8D00",
"D.	c #303001",
"E.	c #3C3C3C",
"F.	c #797978",
"G.	c #FFFFF5",
"H.	c #FFFFC4",
"I.	c #BBBB8B",
"J.	c #A3A379",
"K.	c #8B8B67",
"L.	c #D3D39D",
"M.	c #BCBC80",
"N.	c #D0D065",
"O.	c #717101",
"P.	c #030301",
"Q.	c #403F3F",
"R.	c #6C6C6C",
"S.	c #FFFFF7",
"T.	c #FFFFC5",
"U.	c #D7D7A0",
"V.	c #EDEDB1",
"W.	c #CDCD89",
"X.	c #C0C042",
"Y.	c #B4B229",
"Z.	c #505001",
"`.	c #010100",
" +	c #575655",
".+	c #5B5A59",
"++	c #8B8B83",
"@+	c #C0C068",
"#+	c #CBCB63",
"$+	c #CBCA63",
"%+	c #BBBB62",
"&+	c #808062",
"*+	c #807F61",
"=+	c #7F7F61",
"-+	c #7F7E60",
";+	c #B1B160",
">+	c #C7C760",
",+	c #C7C75F",
"'+	c #C7C65F",
")+	c #C6C65F",
"!+	c #C6C65E",
"~+	c #B8B840",
"{+	c #A6A424",
"]+	c #686823",
"^+	c #161601",
"/+	c #030300",
"(+	c #373632",
"_+	c #787823",
":+	c #7B7A18",
"<+	c #7A7A17",
"[+	c #717124",
"}+	c #545354",
"|+	c #535353",
"1+	c #535253",
"2+	c #525152",
"3+	c #525251",
"4+	c #6E6E1E",
"5+	c #757412",
"6+	c #747311",
"7+	c #747310",
"8+	c #737210",
"9+	c #7C7B10",
"0+	c #78780F",
"a+	c #6F6F2E",
"b+	c #514F49",
"c+	c #040401",
"d+	c #020200",
"e+	c #61605F",
"f+	c #656461",
"g+	c #2E2E2B",
"h+	c #21211E",
"i+	c #22211E",
"j+	c #504F50",
"k+	c #FDFDFB",
"l+	c #DCDCDA",
"m+	c #1E1D1E",
"n+	c #121112",
"o+	c #1C1B13",
"p+	c #191811",
"q+	c #161510",
"r+	c #12120F",
"s+	c #6C6A61",
"t+	c #8B887F",
"u+	c #585857",
"v+	c #FFFFCA",
"w+	c #DDDD8F",
"x+	c #8C8B35",
"y+	c #1C1C17",
"z+	c #4A4A2F",
"A+	c #C2C269",
"B+	c #C2C154",
"C+	c #C1C153",
"D+	c #ADAD30",
"E+	c #686811",
"F+	c #1F1E1B",
"G+	c #3B3A3B",
"H+	c #343233",
"I+	c #252424",
"J+	c #2B2A14",
"K+	c #5B5A13",
"L+	c #5A5913",
"M+	c #595912",
"N+	c #595811",
"O+	c #585811",
"P+	c #3F3E1B",
"Q+	c #2F2C2B",
"R+	c #3D3B3D",
"S+	c #595959",
"T+	c #686868",
"U+	c #686768",
"V+	c #5B5A4B",
"W+	c #383812",
"X+	c #141414",
"Y+	c #222122",
"Z+	c #212021",
"`+	c #201E1F",
" @	c #403E40",
".@	c #3E3D3E",
"+@	c #AEAEAE",
"@@	c #EEEED8",
"#@	c #E1E1BB",
"$@	c #C6C67C",
"%@	c #747312",
"&@	c #191819",
"*@	c #424142",
"=@	c #4F4F4F",
"-@	c #3C3B22",
";@	c #1E1E14",
">@	c #828182",
",@	c #999961",
"'@	c #787712",
")@	c #777612",
"!@	c #595915",
"~@	c #232123",
"{@	c #4E4C4E",
"]@	c #D4D3D4",
"^@	c #EAEACF",
"/@	c #B1B046",
"(@	c #434214",
"_@	c #1B1A1B",
":@	c #1F1D1F",
"<@	c #1D1C1D",
"[@	c #1C1B1C",
"}@	c #272527",
"|@	c #4C4A4C",
"1@	c #898889",
"2@	c #86864A",
"3@	c #706F14",
"4@	c #41411C",
"5@	c #333133",
"        . + + + + + + + + + + + + + + + + + + + + + + @ ",
"        # $ $ $ $ $ $ $ $ $ $ $ $ $ $ $ $ $ $ $ $ $ % & ",
"    * = - ; > , , , , , , , , , , , , , , , , , , ' ) ! ",
"    ~ { ] ^ / ( ( ( ( ( ( ( ( ( ( ( ( ( ( ( ( ( _ : < [ ",
"    } | 1 2 3 4 4 4 4 4 4 4 4 4 4 4 5 6 6 6 6 6 7 8 9   ",
"    0 a b ( c 4 4 4 4 4 4 4 4 4 4 4 d e e e e e f g h   ",
"    i j k 4 4 4 4 4 4 l m n n n o p q r s t u v w x y   ",
"    z A B 4 4 4 4 4 4 C D E E E F G H I J K u L M N O   ",
"    } P Q R S T T T U T V W u u X 4 R S Y Z `  ...+.    ",
"    @.#.$.4 %.q q q d &.*.=.u -.;.4 S E >.,.'.).!.~.    ",
"    {.].^./.%.(._.:.<.p [.}.|.1.2.3.4.5.6.7.4 4 8.9.    ",
"    {.0.b a.U D |.b.m c.d.-.e G l e.r f.g.h.4 i.j.k.    ",
"    l.m.n.o.p.q.r.s.t.u.u u v.w.G x.u y.z.z.A.B.C.D.    ",
"    E.F.G.H.J (.(.(.I.J.(.(.(.K.L.6.(.(.(.(.M.N.O.P.    ",
"    Q.R.S.T.).U.U.U.h.p U.U.U.V.6 U.U.U.U.W.X.Y.Z.P.`.  ",
"     +.+++@+#+$+%+&+&+*+=+=+-+;+>+,+'+)+!+~+{+]+^+/+`.  ",
"      .+(+_+:+<+[+}+|+|+1+2+3+4+5+6+7+8+9+0+a+b+c+d+`.  ",
"      e+f+g+h+i+j+; 1 1 1 k+l+m+n+n+o+p+q+r+s+t+/+d+`.  ",
"                u+> 3 v+v+w+x+y+                        ",
"                z+A+B+C+C+D+E+F+                        ",
"          G+H+I+J+K+L+M+N+O+P+Q+                        ",
"        R+S+T+U+V+W+X+Y+Z+`+                            ",
"   @.@R+m++@@@#@$@%@&@                                  ",
"*@=@=@-@;@>@,@'@)@!@~@                                  ",
"{@]@^@/@(@_@:@<@[@}@                                    ",
"|@1@2@3@4@5@                                            "};
