/* XPM */
static char * calc_backup_xpm[] = {
"32 32 11 1",
" 	c None",
".	c None",
"+	c #7F7F7F",
"@	c #000000",
"#	c #007F7F",
"$	c #00007F",
"%	c #7F7F00",
"&	c #FFFFFF",
"*	c #0000FF",
"=	c #FF0000",
"-	c #7F0000",
"................................",
"..........+@@@@++++++++++++@@@@.",
"..........@#$##..##........#$#@.",
"....@@@+@.@#$##..##........#$#@.",
"...@@.....@#$##..##........#$#@.",
"...@+.....@#$##..##........#$#@.",
"...@@.....@#$##..##........#$#@.",
"...+@@....@#$##............#$#@.",
"....@@....@#$###############$#@.",
"....@@....@##$$$$$$$$$$$$$$$##@.",
"...@@+....@###################@.",
"..@@@@@@@@@###################@.",
".@@@@@%@++@##$$$$$$$$$$$$$$$##@.",
"@@@@@@@@@@@#$###############$#@@",
"@@@@$+....@#$#&&&&&&&&&&&&&#$#@@",
"@@$*@+....@#$#&&&&...&&&&&&#$#@@",
"@*@@$+...+@#$#&&&&.&&.&&&&&#$#@@",
"@@$*@+++++@#$#&&&&...&&&&&&#$#@@",
"@*@@$+..+.@#$#&&&&.&&.&&&&&#$#@@",
"@@$*@+.+..@#$#&&&&...&&&&&&#$#@@",
"@*@@@+.+..@#$#&&&&&&&&&&&&&#$#@@",
"@@@@@+++++@#$#=============#$#@@",
"@@@@@@@@@@+@@@-------------@@@+@",
"@+@+@+@+@+@+@+@+@+@+@@@.@.@.@+@@",
"@@@@@@@@@@@@@@@@@@@@@@@@@@@@@@@@",
"@@+@+@+@+@+@+@+@+@+@@@@.@.@.@+@@",
"@@@@@@@@@@@@@@@@@@@@@@@@@@@@@@@@",
"@@@+@+@+@+@+@+@+@+@$$@@.@.@.@+@@",
"@@@@@@@@@@@@@@@@@@@$$@@@@@@@@@@@",
"@+@+@+@+@+++++@+@+@$$@@.@.@.@*@@",
".@@@@@@@@@@@@@@@@@@@@@@@@@@@@@@.",
"..@@@@@@@@@@@@@@@@@@@@@@@@@@@@.."};
