/* XPM */
static char * floppy_xpm[] = {
"31 23 11 1",
" 	c None",
".	c #000000",
"+	c #707770",
"@	c #505050",
"#	c #1F201F",
"$	c #A00000",
"%	c #900000",
"&	c #FFFFFF",
"*	c #2F30FF",
"=	c #BFBFBF",
"-	c #9F9FA0",
"            .  ++              ",
"           .@..++++            ",
"          .@@#...++++          ",
"         .@@#.$%$..++++        ",
"        .@@#.&&$%$*..++++      ",
"       .@@#.&&&&&****..++++    ",
"      .@@#.&&&&&&&&****..++++  ",
"     .@@#.&&&&&&&&&&&**.=..++++",
"    .@@@@=..&&&&&&&&&&.=@@@.+++",
"   .@@@@@@==..&&&&&&&.=@@@#.+++",
"  .@@@@@@@@@==..&&&&.=@@@##.++ ",
" .@@@@-..@@@@@==..&.=@@@##.++  ",
".@@@@-.==..@@@@@==.=@@@##.++   ",
".&&@-.==#@=..@@@@@=@@@##.++    ",
".--&.==#.#===..@@@@@@##.++     ",
" ..-.&&.#======.@@@@##.++      ",
"   ..--&&=====.=@@@##.++       ",
"     ..--&&==.=@@@##.++        ",
"       ..--&.=@@@##.++         ",
"         ..-.&&@##.++          ",
"           ..--##.++           ",
"             ..#.++            ",
"               .++             "};
