/* XPM */
static char * calc_screen_xpm[] = {
"32 32 8 1",
" 	c None",
".	c None",
"+	c #000000",
"@	c #7F7F7F",
"#	c #7F7F00",
"$	c #00007F",
"%	c #0000FF",
"&	c #7F0000",
"................................",
"................................",
"..................           ...",
"....+++@+.+.......           ...",
"...++.......@.....           ...",
"...+@.........@...           ...",
"...++.............           ...",
"...@++............           ...",
"....++..........................",
"....++..........................",
"...++@..........................",
"..++++++++++++++++++++++++++++..",
".+++++#+@@@@@+++++@@+++++++++++.",
"++++++++++++++++++++++++++++++++",
"++++$@.......@....@.@+$$++$$$+++",
"++$%+@....@..@...@..@+$&+$%$%$++",
"+%++$@...@.@.@..@...@+&&+$$%$$++",
"++$%+@@@@@@@@@@@@@@@@+##+$%$%$++",
"+%++$@..@..@.@.@....@+$#++$$$+++",
"++$%+@.@....@@@.....@+$$++++++++",
"+%+++@.@.....@......@++++$$$$$++",
"+++++@@@@@@@@@@@@@@@@+++++++++++",
"++++++++++++++++++++++++++++++++",
"+@+@+@+@+@+@+@+@+@+@+++.+.+.+@++",
"++++++++++++++++++++++++++++++++",
"++@+@+@+@+@+@+@+@+@++++.+.+.+@++",
"++++++++++++++++++++++++++++++++",
"+++@+@+@+@+@+@+@+@+$$++.+.+.+@++",
"+++++++++++++++++++$$+++++++++++",
"+@+@+@+@+@@@@@+@+@+$$++.+.+.+%++",
".++++++++++++++++++++++++++++++.",
"..++++++++++++++++++++++++++++.."};
