/* XPM */
static char * directory2_xpm[] = {
"32 32 243 2",
"  	c None",
". 	c #676B67",
"+ 	c #696A69",
"@ 	c #282C28",
"# 	c #7C877C",
"$ 	c #C7D0C6",
"% 	c #CDD0CD",
"& 	c #494949",
"* 	c #111112",
"= 	c #111311",
"- 	c #969696",
"; 	c #272727",
"> 	c #0D0E0D",
", 	c #7F897E",
"' 	c #ABB9AA",
") 	c #B7C2B6",
"! 	c #CBD0CA",
"~ 	c #9B9E9B",
"{ 	c #1E211E",
"] 	c #898E89",
"^ 	c #B6B7B7",
"/ 	c #1C1C1C",
"( 	c #222222",
"_ 	c #FEFEFE",
": 	c #EEEEEE",
"< 	c #4C4D4C",
"[ 	c #677066",
"} 	c #9EAB9D",
"| 	c #A9B6A8",
"1 	c #6E7C6D",
"2 	c #212520",
"3 	c #70796F",
"4 	c #D0D7CF",
"5 	c #C0C1C0",
"6 	c #000000",
"7 	c #E3E3E3",
"8 	c #6D706D",
"9 	c #4B514A",
"0 	c #838E82",
"a 	c #A7B5A6",
"b 	c #7B8979",
"c 	c #737772",
"d 	c #0C0C0C",
"e 	c #343833",
"f 	c #B8C4B7",
"g 	c #E8DFE8",
"h 	c #897C89",
"i 	c #6F6E6F",
"j 	c #D5D5D5",
"k 	c #FCFCFC",
"l 	c #FBFCFB",
"m 	c #A5A7A5",
"n 	c #494C49",
"o 	c #626A61",
"p 	c #929E91",
"q 	c #C3CDC2",
"r 	c #C6C9C5",
"s 	c #424342",
"t 	c #0A0A0A",
"u 	c #181A18",
"v 	c #B4C0B3",
"w 	c #D6DCD6",
"x 	c #D0D0CF",
"y 	c #828282",
"z 	c #AAAAAA",
"A 	c #FBFBFB",
"B 	c #FAFBFA",
"C 	c #D6D7D6",
"D 	c #636662",
"E 	c #424741",
"F 	c #929D90",
"G 	c #B5C1B4",
"H 	c #C8CDC7",
"I 	c #A5A6A5",
"J 	c #060706",
"K 	c #20221F",
"L 	c #161715",
"M 	c #869185",
"N 	c #BBC6BA",
"O 	c #E3E7E3",
"P 	c #AAA8AB",
"Q 	c #7C7D7C",
"R 	c #D2D2D1",
"S 	c #FDFDFD",
"T 	c #FAFAFA",
"U 	c #C8CAC7",
"V 	c #3D403C",
"W 	c #5D645C",
"X 	c #9EAA9C",
"Y 	c #BDC7BB",
"Z 	c #C6CBC6",
"` 	c #656665",
" .	c #040404",
"..	c #5B625A",
"+.	c #B1BEB0",
"@.	c #D4DAD3",
"#.	c #C5C7C5",
"$.	c #676967",
"%.	c #AAABAA",
"&.	c #D2D4D1",
"*.	c #6D716D",
"=.	c #3F453E",
"-.	c #8E9A8C",
";.	c #B2BEB1",
">.	c #C4CDC3",
",.	c #757875",
"'.	c #151615",
").	c #474D47",
"!.	c #BDC8BC",
"~.	c #D9DCD8",
"{.	c #9A9A9A",
"].	c #8B8C8B",
"^.	c #D3D3D3",
"/.	c #A1A5A1",
"(.	c #515550",
"_.	c #798378",
":.	c #A1AEA0",
"<.	c #BBC7BA",
"[.	c #BDC3BC",
"}.	c #1C1F1C",
"|.	c #454A44",
"1.	c #A9B7A9",
"2.	c #CDD4CC",
"3.	c #AEB0AE",
"4.	c #7D7D7D",
"5.	c #ACADAC",
"6.	c #F6F6F6",
"7.	c #CCCFCC",
"8.	c #343934",
"9.	c #7E887D",
"0.	c #A0AD9F",
"a.	c #313830",
"b.	c #262925",
"c.	c #96A395",
"d.	c #AEBBAD",
"e.	c #D4D9D4",
"f.	c #737673",
"g.	c #6F726F",
"h.	c #D4D4D4",
"i.	c #D0D1D0",
"j.	c #292C29",
"k.	c #666E65",
"l.	c #7A8878",
"m.	c #121611",
"n.	c #0F100E",
"o.	c #7B857A",
"p.	c #ADBAAC",
"q.	c #B6C2B5",
"r.	c #2A302A",
"s.	c #A5A5A5",
"t.	c #9D9D9D",
"u.	c #262926",
"v.	c #676F66",
"w.	c #798277",
"x.	c #5F6E5D",
"y.	c #0D100C",
"z.	c #444B43",
"A.	c #8F9E8E",
"B.	c #262D26",
"C.	c #939393",
"D.	c #2C2F2B",
"E.	c #838F82",
"F.	c #434E42",
"G.	c #5C665B",
"H.	c #9FAD9E",
"I.	c #95A493",
"J.	c #3B4439",
"K.	c #767676",
"L.	c #747474",
"M.	c #313531",
"N.	c #839181",
"O.	c #2A3329",
"P.	c #434C41",
"Q.	c #97A495",
"R.	c #AAB8A9",
"S.	c #98A696",
"T.	c #485346",
"U.	c #4D4E4D",
"V.	c #4E504E",
"W.	c #434842",
"X.	c #6F786E",
"Y.	c #6C7A6A",
"Z.	c #1B211A",
"`.	c #444D42",
" +	c #8D9B8B",
".+	c #98A797",
"++	c #4D594B",
"@+	c #434443",
"#+	c #383838",
"$+	c #596158",
"%+	c #798377",
"&+	c #434F42",
"*+	c #0B0D0A",
"=+	c #1C221C",
"-+	c #788677",
";+	c #A2B0A1",
">+	c #9DAB9C",
",+	c #525E50",
"'+	c #383A37",
")+	c #252625",
"!+	c #6C786B",
"~+	c #1A2119",
"{+	c #232922",
"]+	c #606E5E",
"^+	c #9BAA9A",
"/+	c #A0AE9E",
"(+	c #576455",
"_+	c #242823",
":+	c #111211",
"<+	c #4E5A4C",
"[+	c #050705",
"}+	c #141814",
"|+	c #4C594A",
"1+	c #7A8978",
"2+	c #A4B2A2",
"3+	c #667564",
"4+	c #1A1F19",
"5+	c #191B19",
"6+	c #565F55",
"7+	c #171C16",
"8+	c #2D332C",
"9+	c #3C483B",
"0+	c #667664",
"a+	c #8B9A8A",
"b+	c #A4B2A3",
"c+	c #697968",
"d+	c #272C26",
"e+	c #2D312D",
"f+	c #2F362E",
"g+	c #030402",
"h+	c #374036",
"i+	c #475545",
"j+	c #728170",
"k+	c #5E6E5C",
"l+	c #303630",
"m+	c #0C0F0C",
"n+	c #3C443B",
"o+	c #445042",
"p+	c #425040",
"q+	c #3B423A",
"r+	c #1D211C",
"s+	c #010101",
"t+	c #121411",
"                                                                ",
"                                                                ",
"                                                                ",
"                                                                ",
"                                                                ",
"                          . + @                                 ",
"                          # $ % & *                             ",
"          =         - ; > , ' ) ! ~ {                           ",
"          ] ^ /   ( _ : < [ } | ' 1 2                           ",
"          3 4 5 6 6 _ _ 7 8 9 0 a b c d                         ",
"          e ' f g h i j k l m n o p q r s t                     ",
"          u ' ' v w x y z A B C D E F G H I J K                 ",
"          L M ' ' ' N O P Q R S T U V W X Y Z `  .              ",
"            ..' ' ' ' +.@.#.$.%._ _ &.*.=.-.;.>.,.'.            ",
"            ).' ' ' ' ' ' !.~.{.].^.A l /.(._.:.<.[.}.          ",
"            |.1.' ' ' ' ' ' G 2.3.4.5.6.B 7.8.9.} 0.a.          ",
"            b.c.' ' ' ' ' ' ' d.q e.f.g.h.i.j.k._.l.m.          ",
"            n.o.' ' ' ' ' ' ' ' p.q.p r.s.t.u.v.w.x.y.          ",
"              z.0.' ' ' ' ' ' ' ' ' A.B.C.4.D.v.E.F.            ",
"                G.H.' ' ' ' ' ' ' ' I.J.K.L.M.v.N.O.            ",
"                  P.Q.R.' ' ' ' ' ' S.T.U.V.W.X.Y.Z.            ",
"                    `. +' ' ' ' ' ' .+++@+#+$+%+&+*+            ",
"                      =+-+;+' ' ' ' >+,+'+)+k.!+~+              ",
"                        {+]+^+' ' ' /+(+_+:+v.<+[+6 6           ",
"                          }+|+1+H.R.2+3+4+5+6+7+6 6 6 6         ",
"                            8+9+0+a+b+c+d+e+f+g+6 6 6 6         ",
"                                h+i+j+k+=.l+m+6 6 6 6           ",
"                                  n+o+p+q+r+s+6 6               ",
"                                      t+6 6 6 6                 ",
"                                                                ",
"                                                                ",
"                                                                "};
